<svg width="180" height="36" viewBox="0 0 180 36" fill="none" xmlns="http://www.w3.org/2000/svg">
  <g transform="translate(0, 1) scale(0.00332)">
    <g transform="translate(0,10240) scale(1,-1)" fill="#14b8a6" stroke="none">
<path d="M4890 7940 l0 -240 83 0 c193 0 493 -50 706 -116 639 -199 1167 -659
1429 -1244 41 -93 95 -233 122 -322 11 -38 26 -68 33 -68 14 0 429 141 439
149 9 8 -56 205 -116 351 -306 745 -917 1306 -1717 1574 -248 83 -680 156
-925 156 l-54 0 0 -240z"/>
<path d="M4890 7020 l0 -240 65 0 c232 0 560 -105 765 -245 175 -120 326 -268
422 -415 72 -109 154 -278 184 -378 14 -48 30 -91 34 -95 6 -7 434 133 447
147 3 2 -12 58 -33 123 -44 138 -166 385 -244 493 -291 407 -678 670 -1171
795 -105 27 -317 55 -411 55 l-58 0 0 -240z"/>
<path d="M4380 6414 c-211 -40 -338 -76 -498 -141 -606 -243 -1081 -733 -1285
-1323 -85 -245 -107 -370 -114 -645 -7 -302 13 -444 103 -720 105 -320 273
-587 528 -840 239 -237 462 -387 756 -507 164 -68 293 -104 510 -146 l135 -26
1623 -3 1622 -4 0 1852 c0 1732 -1 1851 -17 1845 -21 -9 -251 -89 -365 -128
l-88 -30 0 -1479 0 -1479 -195 0 -195 0 0 1270 0 1270 -237 -2 -238 -3 -3
-1267 -2 -1268 -210 0 -210 0 0 950 0 950 -250 0 -250 0 0 -951 0 -950 -507 3
c-570 4 -620 9 -834 84 -425 147 -738 415 -952 814 -51 95 -117 283 -142 404
-57 284 -35 599 61 856 153 409 426 715 809 905 183 90 357 143 529 161 l66 7
0 278 0 279 -37 -1 c-21 0 -72 -7 -113 -15z"/>
<path d="M4887 6354 c-3 -3 -6 -110 -7 -238 l-1 -232 68 -13 c85 -16 232 -86
299 -143 90 -77 187 -229 215 -340 7 -26 16 -48 20 -48 6 0 105 33 354 119 61
21 81 33 83 48 5 32 -57 187 -109 275 -148 246 -340 412 -586 506 -108 41
-319 83 -336 66z"/>
<path d="M4617 4114 c-4 -4 -7 -283 -7 -621 l0 -613 250 0 250 0 -2 618 -3
617 -241 3 c-132 1 -243 -1 -247 -4z"/>
    </g>
  </g>
  <text x="42" y="25" font-family="Inter, -apple-system, BlinkMacSystemFont, sans-serif" font-size="21" font-weight="700" fill="#14b8a6" letter-spacing="-0.3">Cashcast</text>
</svg>